HIERARCHY
ROOT hips
{
	OFFSET 0.000000 104.274902 0.000000
	CHANNELS 6 Xposition Yposition Zposition Xrotation Yrotation Zrotation
	JOINT spine
	{
		OFFSET 0.000000 10.181549 0.131524
		CHANNELS 6 Xposition Yposition Zposition Xrotation Yrotation Zrotation
		JOINT chest
		{
			OFFSET 0.000000 9.893990 -1.470706
			CHANNELS 3 Xrotation Yrotation Zrotation
			JOINT upperChest
			{
				OFFSET 0.000000 9.220787 -1.370637
				CHANNELS 3 Xrotation Yrotation Zrotation
				JOINT neck
				{
					OFFSET 0.000000 16.740372 -2.049022
					CHANNELS 6 Xposition Yposition Zposition Xrotation Yrotation Zrotation
					JOINT head
					{
						OFFSET 0.000000 9.617859 1.684976
						CHANNELS 6 Xposition Yposition Zposition Xrotation Yrotation Zrotation
						JOINT headEnd
						{
							OFFSET 0.000000 22.037384 7.501072
							CHANNELS 6 Xposition Yposition Zposition Xrotation Yrotation Zrotation
							End Site
							{
								OFFSET 0.000000 23.106567 -2.828246
							}
						}
					}
				}
				JOINT rightShoulder
				{
					OFFSET -4.570000 11.014877 -2.160840
					CHANNELS 6 Xposition Yposition Zposition Xrotation Yrotation Zrotation
					JOINT rightUpperArm
					{
						OFFSET -10.592867 -0.524796 -2.232105
						CHANNELS 3 Xrotation Yrotation Zrotation
						JOINT rightLowerArm
						{
							OFFSET -27.841497 0.000000 -0.000002
							CHANNELS 3 Xrotation Yrotation Zrotation
							JOINT rightHand
							{
								OFFSET -28.328812 0.000000 -0.000001
								CHANNELS 3 Xrotation Yrotation Zrotation
								JOINT rightThumbProximal
								{
									OFFSET -2.464798 -1.573990 2.681911
									CHANNELS 6 Xposition Yposition Zposition Xrotation Yrotation Zrotation
									JOINT rightThumbIntermediate
									{
										OFFSET -3.244781 -1.873383 1.873376
										CHANNELS 3 Xrotation Yrotation Zrotation
										JOINT rightThumbDistal
										{
											OFFSET -2.646263 -1.527817 1.527818
											CHANNELS 6 Xposition Yposition Zposition Xrotation Yrotation Zrotation
											JOINT rightHandThumb4
											{
												OFFSET -1.994591 -1.151581 1.151575
												CHANNELS 6 Xposition Yposition Zposition Xrotation Yrotation Zrotation
												End Site
												{
													OFFSET -1.860176 -1.142715 1.365483
												}
											}
										}
									}
								}
								JOINT rightIndexProximal
								{
									OFFSET -9.108299 -0.517883 2.259803
									CHANNELS 6 Xposition Yposition Zposition Xrotation Yrotation Zrotation
									JOINT rightIndexIntermediate
									{
										OFFSET -3.699997 0.000000 0.000000
										CHANNELS 3 Xrotation Yrotation Zrotation
										JOINT rightIndexDistal
										{
											OFFSET -2.850006 0.000000 0.000000
											CHANNELS 3 Xrotation Yrotation Zrotation
											JOINT rightHandIndex4
											{
												OFFSET -2.772194 0.000000 0.000000
												CHANNELS 3 Xrotation Yrotation Zrotation
												End Site
												{
													OFFSET -2.772202 0.000000 -0.000484
												}
											}
										}
									}
								}
								JOINT rightMiddleProximal
								{
									OFFSET -9.532501 0.000000 -0.000000
									CHANNELS 6 Xposition Yposition Zposition Xrotation Yrotation Zrotation
									JOINT rightMiddleIntermediate
									{
										OFFSET -3.699997 0.000000 0.000000
										CHANNELS 3 Xrotation Yrotation Zrotation
										JOINT rightMiddleDistal
										{
											OFFSET -2.949997 0.000000 0.000000
											CHANNELS 3 Xrotation Yrotation Zrotation
											JOINT rightHandMiddle4
											{
												OFFSET -2.946594 0.000000 0.000000
												CHANNELS 3 Xrotation Yrotation Zrotation
												End Site
												{
													OFFSET -2.946602 0.000000 -0.000982
												}
											}
										}
									}
								}
								JOINT rightRingProximal
								{
									OFFSET -9.103600 -0.043106 -1.865100
									CHANNELS 6 Xposition Yposition Zposition Xrotation Yrotation Zrotation
									JOINT rightRingIntermediate
									{
										OFFSET -3.379303 0.000000 0.000000
										CHANNELS 3 Xrotation Yrotation Zrotation
										JOINT rightRingDistal
										{
											OFFSET -2.889694 0.000000 0.000000
											CHANNELS 3 Xrotation Yrotation Zrotation
											JOINT rightHandRing4
											{
												OFFSET -2.638802 0.000000 0.000000
												CHANNELS 3 Xrotation Yrotation Zrotation
												End Site
												{
													OFFSET -2.638802 0.000000 0.004218
												}
											}
										}
									}
								}
								JOINT rightLittleProximal
								{
									OFFSET -8.076698 -0.486725 -3.806299
									CHANNELS 6 Xposition Yposition Zposition Xrotation Yrotation Zrotation
									JOINT rightLittleIntermediate
									{
										OFFSET -3.600006 0.000000 0.000000
										CHANNELS 3 Xrotation Yrotation Zrotation
										JOINT rightLittleDistal
										{
											OFFSET -2.099998 0.000000 0.000000
											CHANNELS 3 Xrotation Yrotation Zrotation
											JOINT rightHandPinky4
											{
												OFFSET -2.115791 0.000000 0.000000
												CHANNELS 3 Xrotation Yrotation Zrotation
												End Site
												{
													OFFSET -2.115799 0.000000 0.000174
												}
											}
										}
									}
								}
							}
						}
					}
				}
				JOINT leftShoulder
				{
					OFFSET 4.570400 11.014679 -2.160816
					CHANNELS 6 Xposition Yposition Zposition Xrotation Yrotation Zrotation
					JOINT leftUpperArm
					{
						OFFSET 10.592373 -0.524597 -2.232116
						CHANNELS 3 Xrotation Yrotation Zrotation
						JOINT leftLowerArm
						{
							OFFSET 27.841488 0.000000 0.000001
							CHANNELS 3 Xrotation Yrotation Zrotation
							JOINT leftHand
							{
								OFFSET 28.328808 0.000000 -0.000000
								CHANNELS 3 Xrotation Yrotation Zrotation
								JOINT leftThumbProximal
								{
									OFFSET 2.466103 -1.576202 2.681698
									CHANNELS 6 Xposition Yposition Zposition Xrotation Yrotation Zrotation
									JOINT leftThumbIntermediate
									{
										OFFSET 3.243317 -1.872528 1.872530
										CHANNELS 3 Xrotation Yrotation Zrotation
										JOINT leftThumbDistal
										{
											OFFSET 2.647881 -1.528763 1.528754
											CHANNELS 6 Xposition Yposition Zposition Xrotation Yrotation Zrotation
											JOINT leftHandThumb4
											{
												OFFSET 1.998924 -1.154083 1.154080
												CHANNELS 6 Xposition Yposition Zposition Xrotation Yrotation Zrotation
												End Site
												{
													OFFSET 1.884041 -1.149155 1.337651
												}
											}
										}
									}
								}
								JOINT leftIndexProximal
								{
									OFFSET 9.109299 -0.518005 2.259900
									CHANNELS 6 Xposition Yposition Zposition Xrotation Yrotation Zrotation
									JOINT leftIndexIntermediate
									{
										OFFSET 3.699997 0.000000 0.000000
										CHANNELS 3 Xrotation Yrotation Zrotation
										JOINT leftIndexDistal
										{
											OFFSET 2.850006 0.000000 0.000000
											CHANNELS 3 Xrotation Yrotation Zrotation
											JOINT leftHandIndex4
											{
												OFFSET 2.774895 0.000000 0.000000
												CHANNELS 3 Xrotation Yrotation Zrotation
												End Site
												{
													OFFSET 2.774902 0.000000 -0.000072
												}
											}
										}
									}
								}
								JOINT leftMiddleProximal
								{
									OFFSET 9.533401 0.000000 0.000000
									CHANNELS 6 Xposition Yposition Zposition Xrotation Yrotation Zrotation
									JOINT leftMiddleIntermediate
									{
										OFFSET 3.699997 0.000000 0.000000
										CHANNELS 3 Xrotation Yrotation Zrotation
										JOINT leftMiddleDistal
										{
											OFFSET 2.949997 0.000000 0.000000
											CHANNELS 3 Xrotation Yrotation Zrotation
											JOINT leftHandMiddle4
											{
												OFFSET 2.952896 0.000000 0.000000
												CHANNELS 3 Xrotation Yrotation Zrotation
												End Site
												{
													OFFSET 2.952904 0.000000 0.000165
												}
											}
										}
									}
								}
								JOINT leftRingProximal
								{
									OFFSET 9.104500 -0.042999 -1.865101
									CHANNELS 6 Xposition Yposition Zposition Xrotation Yrotation Zrotation
									JOINT leftRingIntermediate
									{
										OFFSET 3.149994 0.000000 0.000000
										CHANNELS 3 Xrotation Yrotation Zrotation
										JOINT leftRingDistal
										{
											OFFSET 2.950005 0.000000 0.000000
											CHANNELS 3 Xrotation Yrotation Zrotation
											JOINT leftHandRing4
											{
												OFFSET 2.644302 0.000000 0.000000
												CHANNELS 3 Xrotation Yrotation Zrotation
												End Site
												{
													OFFSET 2.644302 0.000000 0.000083
												}
											}
										}
									}
								}
								JOINT leftLittleProximal
								{
									OFFSET 8.077805 -0.486893 -3.806302
									CHANNELS 6 Xposition Yposition Zposition Xrotation Yrotation Zrotation
									JOINT leftLittleIntermediate
									{
										OFFSET 3.600006 0.000000 0.000000
										CHANNELS 3 Xrotation Yrotation Zrotation
										JOINT leftLittleDistal
										{
											OFFSET 2.099998 0.000000 0.000000
											CHANNELS 3 Xrotation Yrotation Zrotation
											JOINT leftHandPinky4
											{
												OFFSET 2.125496 0.000000 0.000000
												CHANNELS 3 Xrotation Yrotation Zrotation
												End Site
												{
													OFFSET 2.125504 0.000000 -0.001254
												}
											}
										}
									}
								}
							}
						}
					}
				}
			}
		}
	}
	JOINT rightUpperLeg
	{
		OFFSET -8.207800 -6.751701 -1.599544
		CHANNELS 6 Xposition Yposition Zposition Xrotation Yrotation Zrotation
		JOINT rightLowerLeg
		{
			OFFSET 0.000004 -44.370152 0.345934
			CHANNELS 3 Xrotation Yrotation Zrotation
			JOINT rightFoot
			{
				OFFSET 0.000004 -44.423664 -3.043535
				CHANNELS 3 Xrotation Yrotation Zrotation
				JOINT rightToes
				{
					OFFSET 0.000001 -8.728691 10.710592
					CHANNELS 3 Xrotation Yrotation Zrotation
					JOINT rightToesEnd
					{
						OFFSET 0.000000 -0.000665 9.278101
						CHANNELS 3 Xrotation Yrotation Zrotation
						End Site
						{
							OFFSET 0.000000 -0.000665 9.278103
						}
					}
				}
			}
		}
	}
	JOINT leftUpperLeg
	{
		OFFSET 8.207800 -6.751701 -1.599544
		CHANNELS 6 Xposition Yposition Zposition Xrotation Yrotation Zrotation
		JOINT leftLowerLeg
		{
			OFFSET 0.000004 -44.370037 0.346940
			CHANNELS 3 Xrotation Yrotation Zrotation
			JOINT leftFoot
			{
				OFFSET 0.000004 -44.423611 -3.044388
				CHANNELS 3 Xrotation Yrotation Zrotation
				JOINT leftToes
				{
					OFFSET 0.000001 -8.728690 10.710592
					CHANNELS 3 Xrotation Yrotation Zrotation
					JOINT leftToesEnd
					{
						OFFSET 0.000000 -0.000680 9.278101
						CHANNELS 3 Xrotation Yrotation Zrotation
						End Site
						{
							OFFSET 0.000000 -0.000680 9.278101
						}
					}
				}
			}
		}
	}
}
MOTION
Frames: 4
Frame Time: 0.033333
0.505671 90.303780 3.906754 10.254767 19.561785 -4.289119 0.000000 10.181549 0.131522 -5.688795 -3.867362 0.978555 -9.669942 -6.358587 5.913372 -9.693556 -5.983699 6.247730 0.000002 16.740358 -2.049022 -4.837396 0.494197 -1.106302 0.000003 9.617839 1.684973 5.258946 0.733632 0.679899 0.000001 22.037369 7.501084 0.000001 -0.000000 0.000002 -4.569997 11.014865 -2.160845 0.338319 -10.571977 8.217825 -8.662785 -5.991100 46.407799 0.000119 117.529852 -0.000058 -16.131893 44.041302 -2.630134 -2.464804 -1.573994 2.681910 -1.849240 -3.581791 -6.586152 4.637187 -8.634125 -0.225377 -2.646271 -1.527811 1.527814 -1.273755 0.137307 -2.094879 -1.994586 -1.151585 1.151579 0.000001 -0.000004 -0.000002 -9.108315 -0.517883 2.259804 -0.000000 -0.000000 -0.000000 -0.000000 -0.000000 0.000000 0.000018 0.000000 -0.000000 -0.000000 0.000000 0.000000 -9.532509 -0.000000 -0.000001 -0.000000 0.000000 -0.000000 -0.000000 0.000000 -0.000000 0.000018 0.000000 -0.000000 -0.000001 -0.000000 0.000000 -9.103607 -0.043106 -1.865103 -0.000000 0.000000 -0.000000 0.000001 0.000001 0.000009 0.000005 0.000000 0.000000 0.000000 -0.000000 0.000000 -8.076700 -0.486737 -3.806298 -0.000000 -0.000003 -0.000002 0.000000 0.000000 0.000000 0.000017 -0.000000 -0.000000 -0.000002 0.000000 0.000000 4.570402 11.014681 -2.160818 -0.622703 5.925309 2.860984 -10.694615 -44.261002 2.597696 0.000031 -117.480688 0.000030 10.536363 -46.037924 21.240218 2.466100 -1.576198 2.681703 -1.539950 3.690278 6.142351 3.939034 7.948713 0.746807 2.647892 -1.528751 1.528753 -0.579450 1.575000 2.538700 1.998905 -1.154080 1.154075 -0.000001 0.000003 0.000001 9.109301 -0.518010 2.259901 -0.000004 -0.000009 -0.000006 0.000012 -0.000000 -0.000071 -0.000007 0.000012 0.000012 0.000002 0.000000 0.000000 9.533408 0.000018 0.000001 -0.000000 -0.001931 0.015968 -0.000001 0.001925 -0.015983 -0.000002 0.000001 -0.000001 -0.000002 0.000001 -0.000001 9.104502 -0.043003 -1.865096 -0.000004 -0.000009 -0.000006 0.000001 0.000003 0.000000 0.000002 0.000012 0.000004 0.000001 0.000002 0.000001 8.077807 -0.486889 -3.806300 -0.018086 4.054252 0.511065 -0.018090 -4.054253 -0.511068 0.000000 -0.000005 -0.000014 -0.000000 -0.000002 0.000002 -8.207803 -6.751709 -1.599540 -25.300933 -8.367826 -14.956424 50.697438 -9.323563 -2.306095 -30.812073 -5.814452 15.944735 -1.624951 0.000005 0.000000 0.000000 0.000000 -0.000000 8.207799 -6.751710 -1.599542 -35.033164 -8.959309 9.456095 51.095358 0.058462 9.960465 -25.083936 4.042638 -19.006863 -2.734450 0.000000 -0.000001 -0.000000 -0.000002 0.000000 
-0.403041 89.745857 3.659870 11.011892 18.280622 -3.358222 0.000000 10.181542 0.131523 -5.343836 -3.739310 0.742361 -9.109819 -6.134516 5.186066 -9.121036 -5.832154 5.491420 -0.000001 16.740345 -2.049017 -3.344496 1.187275 -1.543004 -0.000006 9.617818 1.684977 4.759458 3.731578 -2.534753 -0.000002 22.037399 7.501069 -0.000001 0.000001 0.000000 -4.569999 11.014852 -2.160838 0.634204 -12.226985 10.041124 -8.991093 -4.328808 48.140877 0.000134 115.116992 -0.000064 -12.981849 49.147917 -9.048824 -2.464802 -1.573991 2.681909 -1.849239 -3.581792 -6.586149 4.637188 -8.634129 -0.225376 -2.646283 -1.527797 1.527820 -1.273751 0.137304 -2.094880 -1.994597 -1.151587 1.151580 -0.000001 -0.000004 -0.000004 -9.108308 -0.517883 2.259798 -0.000001 -0.000000 0.000000 -0.000000 0.000000 0.000000 0.000018 0.000000 0.000000 0.000001 0.000000 -0.000000 -9.532502 -0.000000 -0.000003 -0.000001 -0.000000 0.000000 -0.000000 0.000000 0.000000 0.000018 0.000000 0.000000 -0.000001 0.000000 0.000000 -9.103601 -0.043106 -1.865104 -0.000001 -0.000000 0.000000 0.000001 0.000000 0.000010 0.000006 0.000000 0.000000 0.000000 0.000000 0.000000 -8.076707 -0.486725 -3.806304 -0.000001 -0.000000 0.000000 -0.000000 0.000000 0.000000 0.000018 -0.000000 -0.000000 0.000002 0.000000 0.000000 4.570397 11.014675 -2.160814 -0.641754 6.269611 2.189338 -13.410616 -37.463509 1.009438 0.000022 -120.450386 0.000029 9.842242 -48.558660 23.601507 2.466102 -1.576198 2.681684 -1.539945 3.690259 6.142353 3.939028 7.948721 0.746808 2.647871 -1.528746 1.528750 -0.579450 1.574996 2.538706 1.998925 -1.154092 1.154089 0.000001 0.000001 -0.000000 9.109296 -0.518005 2.259886 -0.000002 -0.000003 0.000001 0.000007 -0.000001 -0.000070 -0.000008 0.000011 0.000012 0.000000 0.000001 -0.000000 9.533401 0.000010 -0.000011 -0.000003 -0.001924 0.015986 -0.000003 0.001925 -0.015982 -0.000001 -0.000000 -0.000001 0.000001 -0.000001 -0.000000 9.104497 -0.042999 -1.865111 -0.000002 -0.000003 0.000001 -0.000001 -0.000000 0.000000 0.000000 0.000010 0.000005 0.000003 -0.000002 -0.000001 8.077807 -0.486916 -3.806309 -0.018092 4.054258 0.511071 -0.018095 -4.054255 -0.511069 -0.000002 -0.000003 -0.000012 0.000003 -0.000002 -0.000000 -8.207802 -6.751714 -1.599544 -28.214670 -7.414698 -15.470717 53.285786 -9.205269 -2.801977 -31.589020 -5.918373 15.569271 -1.556865 0.000002 0.000002 -0.000000 0.000000 -0.000000 8.207798 -6.751709 -1.599541 -35.902394 -7.552004 10.159701 51.139829 0.883133 10.054580 -24.460528 4.352111 -19.876878 -4.412968 -0.000003 0.000002 -0.000000 -0.000001 -0.000000 
-1.499989 89.560013 2.508725 6.189471 16.363223 -2.506936 -0.000000 10.181541 0.131524 -3.006456 -2.929160 0.550915 -4.871036 -4.781426 5.120155 -4.889860 -4.578180 5.283355 0.000004 16.740396 -2.049019 -1.885062 1.293280 -1.535886 -0.000003 9.617838 1.684967 2.893356 4.544077 -2.975674 -0.000000 22.037384 7.501071 -0.000000 0.000000 -0.000001 -4.569996 11.014887 -2.160839 0.500553 -11.028500 8.979780 -16.922902 6.067433 48.544808 0.000340 102.001649 -0.000266 -4.009377 48.120967 -14.297051 -2.464785 -1.573993 2.681918 -1.849239 -3.581795 -6.586154 4.637186 -8.634125 -0.225372 -2.646282 -1.527800 1.527822 -1.273752 0.137307 -2.094880 -1.994594 -1.151581 1.151570 -0.000001 -0.000001 0.000001 -9.108291 -0.517884 2.259806 -0.000002 0.000001 -0.000000 -0.000000 -0.000000 -0.000000 0.000016 0.000000 -0.000000 0.000001 -0.000000 0.000000 -9.532493 -0.000000 0.000003 -0.000002 0.000001 -0.000000 -0.000000 0.000000 -0.000000 0.000016 0.000000 -0.000000 -0.000001 -0.000001 0.000000 -9.103591 -0.043106 -1.865099 -0.000002 0.000000 -0.000000 -0.000000 0.000000 0.000009 0.000004 0.000001 0.000000 0.000000 0.000000 -0.000000 -8.076693 -0.486730 -3.806295 -0.000018 0.000001 0.000001 -0.000001 0.000001 -0.000000 0.000017 0.000000 -0.000000 0.000001 0.000001 0.000000 4.570403 11.014686 -2.160815 -0.539781 5.762564 2.026932 -17.163068 -44.049362 -4.293729 0.000004 -106.750181 0.000012 19.993627 -42.966473 24.775451 2.466095 -1.576179 2.681711 -1.539960 3.690259 6.142355 3.939029 7.948718 0.746807 2.647900 -1.528759 1.528760 -0.579458 1.574996 2.538700 1.998921 -1.154096 1.154089 -0.000002 0.000001 0.000001 9.109295 -0.518011 2.259921 -0.000004 -0.000006 -0.000004 0.000004 -0.000001 -0.000070 -0.000010 0.000013 0.000013 -0.000002 -0.000001 0.000000 9.533399 0.000021 0.000013 -0.000007 -0.001940 0.015973 0.000000 0.001925 -0.015981 -0.000002 0.000000 0.000001 0.000000 0.000000 0.000000 9.104496 -0.042990 -1.865081 -0.000004 -0.000006 -0.000004 -0.000003 -0.000002 0.000000 0.000001 0.000007 0.000004 0.000004 -0.000001 -0.000000 8.077806 -0.486873 -3.806285 -0.018091 4.054245 0.511069 -0.018094 -4.054252 -0.511069 -0.000002 -0.000002 -0.000011 0.000002 -0.000001 -0.000001 -8.207804 -6.751718 -1.599542 -25.305559 -6.038496 -13.371605 54.987773 -9.146614 -3.442899 -31.722516 -6.365127 14.745689 -1.595438 -0.000002 -0.000004 0.000000 -0.000000 -0.000000 8.207799 -6.751708 -1.599544 -33.183921 -6.262614 12.762058 53.679191 -0.876738 10.026547 -20.639020 4.254463 -21.442723 -7.714363 -0.000008 -0.000007 -0.000000 0.000000 0.000000 
-2.726193 90.006653 0.857139 -1.563155 15.466615 -0.791939 0.000000 10.181536 0.131525 0.461356 -1.977984 -0.047975 1.415172 -3.290273 4.357960 1.384042 -3.264053 4.386788 0.000003 16.740347 -2.049018 -0.751822 1.024139 -1.269062 -0.000001 9.617838 1.684975 0.645451 3.683010 -1.919076 -0.000001 22.037369 7.501073 -0.000000 0.000000 0.000000 -4.569998 11.014868 -2.160838 0.238991 -8.331254 6.275910 -28.065679 18.281490 47.910837 -0.000550 85.334983 0.000656 1.691408 42.746414 -11.883335 -2.464802 -1.573977 2.681900 -1.849238 -3.581794 -6.586146 4.637188 -8.634130 -0.225376 -2.646275 -1.527825 1.527819 -1.273751 0.137306 -2.094876 -1.994571 -1.151581 1.151560 -0.000001 -0.000004 -0.000002 -9.108298 -0.517887 2.259797 0.000001 -0.000001 -0.000000 0.000001 -0.000002 0.000001 0.000019 -0.000000 0.000002 0.000001 -0.000002 0.000001 -9.532500 -0.000004 -0.000009 0.000001 -0.000001 -0.000000 0.000001 -0.000002 0.000001 0.000019 -0.000000 0.000002 -0.000001 0.000001 0.000001 -9.103599 -0.043109 -1.865111 0.000001 -0.000002 -0.000000 0.000000 -0.000000 0.000013 0.000005 0.000000 0.000002 -0.000000 0.000001 -0.000000 -8.076697 -0.486727 -3.806303 0.000001 -0.000003 -0.000000 0.000000 -0.000003 0.000001 0.000018 -0.000002 0.000002 -0.000002 -0.000001 -0.000001 4.570402 11.014672 -2.160814 -0.341189 4.337507 3.072772 -25.391729 -56.273812 -12.999568 -0.000035 -84.637416 -0.000065 32.212945 -39.022968 29.086951 2.466097 -1.576234 2.681698 -1.539946 3.690263 6.142349 3.939029 7.948718 0.746814 2.647878 -1.528763 1.528761 -0.579453 1.574998 2.538703 1.998924 -1.154110 1.154067 -0.000002 0.000004 0.000003 9.109299 -0.518035 2.259898 0.000008 0.000002 0.000000 0.000011 -0.000000 -0.000070 -0.000006 0.000014 0.000013 0.000002 0.000000 0.000000 9.533400 -0.000008 0.000000 0.000013 -0.001922 0.015983 -0.000001 0.001927 -0.015982 -0.000001 0.000000 0.000000 -0.000002 0.000000 -0.000000 9.104499 -0.043014 -1.865097 0.000008 0.000002 0.000000 0.000001 -0.000000 -0.000000 0.000004 0.000009 0.000004 -0.000002 -0.000000 -0.000000 8.077801 -0.486909 -3.806303 -0.018079 4.054245 0.511063 -0.018097 -4.054253 -0.511068 -0.000006 -0.000002 -0.000011 -0.000001 -0.000000 0.000000 -8.207801 -6.751720 -1.599543 -18.811596 -5.001915 -11.348749 55.362337 -9.056923 -4.086789 -31.182286 -7.317546 13.342459 -1.601285 -0.000001 -0.000006 -0.000000 -0.000000 0.000000 8.207798 -6.751716 -1.599542 -28.648463 -5.369107 14.590414 56.471143 -4.602673 9.963260 -12.469046 3.272406 -21.889477 -15.312051 -0.000006 0.000002 0.000000 -0.000001 0.000000 
